<svg width="512" height="512" viewBox="0 0 512 512" fill="none" xmlns="http://www.w3.org/2000/svg">
  <rect width="512" height="512" rx="128" fill="#F7F3EC"/>
  <rect x="24" y="24" width="464" height="464" rx="104" stroke="rgba(46,35,22,0.12)" stroke-width="8"/>
  <path d="M175 157C142 157 116 183 116 218V294C116 329 143 355 177 355H227C239 355 248 346 248 334V280H181C170 280 161 271 161 260C161 249 170 240 181 240H275C286 240 295 249 295 260V334C295 391 246 434 189 434H177C99 434 36 371 36 294V218C36 141 98 78 175 78H271C282 78 291 87 291 98C291 109 282 118 271 118H175V157Z" fill="#4D5F2D"/>
  <path d="M332 97C332 86 341 77 352 77H436C447 77 456 86 456 97C456 108 447 117 436 117H372V223H426C437 223 446 232 446 243C446 254 437 263 426 263H372V414C372 425 363 434 352 434C341 434 332 425 332 414V97Z" fill="#221D18"/>
  <path d="M358 66C381 66 400 54 412 35C414 31 420 32 421 36C423 61 408 86 384 96L368 102L358 66Z" fill="#8FB26A"/>
</svg>
