<svg xmlns="http://www.w3.org/2000/svg" width="1200" height="630" viewBox="0 0 1200 630">
  <defs>
    <linearGradient id="bg" x1="0" y1="0" x2="1" y2="1">
      <stop offset="0" stop-color="#050506"/>
      <stop offset="1" stop-color="#12101c"/>
    </linearGradient>
    <radialGradient id="glow" cx="28%" cy="70%" r="70%">
      <stop offset="0" stop-color="#d6b36a" stop-opacity="0.16"/>
      <stop offset="1" stop-color="#d6b36a" stop-opacity="0"/>
    </radialGradient>
    <filter id="grain" x="-20%" y="-20%" width="140%" height="140%">
      <feTurbulence type="fractalNoise" baseFrequency="0.88" numOctaves="2" stitchTiles="stitch"/>
      <feColorMatrix type="matrix" values="0 0 0 0 0.95  0 0 0 0 0.93  0 0 0 0 0.90  0 0 0 0.055 0"/>
    </filter>
  </defs>

  <rect width="1200" height="630" fill="url(#bg)"/>
  <rect width="1200" height="630" fill="url(#glow)"/>
  <rect x="36" y="36" width="1128" height="558" rx="28" fill="none" stroke="#f3efe6" stroke-opacity="0.18"/>
  <rect x="54" y="54" width="1092" height="522" rx="22" fill="none" stroke="#f3efe6" stroke-opacity="0.10"/>

  <g opacity="0.92">
    <text x="90" y="178" fill="#f3efe6" font-size="44" font-family="ui-serif, Georgia, 'Times New Roman', serif" letter-spacing="0.02em">café interact</text>
    <text x="90" y="224" fill="#f3efe6" opacity="0.72" font-size="20" font-family="ui-sans-serif, system-ui, -apple-system, 'Segoe UI', Roboto, Arial" letter-spacing="0.14em">DEDICATED GLUTEN-FREE DESSERT CAFE</text>
    <text x="90" y="270" fill="#f3efe6" opacity="0.68" font-size="18" font-family="ui-sans-serif, system-ui, -apple-system, 'Segoe UI', Roboto, Arial">Seoul • Gangnam (Nonhyeon)</text>
  </g>

  <g transform="translate(90 330)" fill="none" stroke="#d6b36a" stroke-opacity="0.7" stroke-width="2" stroke-linecap="round" stroke-linejoin="round">
    <path d="M0 92h120"/>
    <path d="M20 92c0-30 10-54 40-54s40 24 40 54" opacity="0.9"/>
    <path d="M60 24c-10 10-10 22 0 32"/>
    <path d="M88 22c-12 12-12 26 0 38" opacity="0.85"/>
  </g>

  <g filter="url(#grain)" opacity="0.18"><rect width="1200" height="630"/></g>
</svg>
