<svg xmlns="http://www.w3.org/2000/svg" width="1200" height="630" viewBox="0 0 1200 630">
  <defs>
    <linearGradient id="bg" x1="0" y1="0" x2="1" y2="1">
      <stop offset="0" stop-color="#0a0a0c"/>
      <stop offset="1" stop-color="#111018"/>
    </linearGradient>
    <radialGradient id="glow" cx="25%" cy="20%" r="70%">
      <stop offset="0" stop-color="#d6b36a" stop-opacity="0.22"/>
      <stop offset="1" stop-color="#d6b36a" stop-opacity="0"/>
    </radialGradient>
    <filter id="grain" x="-20%" y="-20%" width="140%" height="140%">
      <feTurbulence type="fractalNoise" baseFrequency="0.9" numOctaves="2" stitchTiles="stitch"/>
      <feColorMatrix type="matrix" values="0 0 0 0 0.95  0 0 0 0 0.93  0 0 0 0 0.90  0 0 0 0.055 0"/>
    </filter>
  </defs>

  <rect width="1200" height="630" fill="url(#bg)"/>
  <rect width="1200" height="630" fill="url(#glow)"/>
  <rect x="36" y="36" width="1128" height="558" rx="28" fill="none" stroke="#f3efe6" stroke-opacity="0.18"/>
  <rect x="54" y="54" width="1092" height="522" rx="22" fill="none" stroke="#f3efe6" stroke-opacity="0.10"/>

  <g opacity="0.9">
    <text x="90" y="178" fill="#f3efe6" font-size="44" font-family="ui-serif, Georgia, 'Times New Roman', serif" letter-spacing="0.02em">Sunny Bakery</text>
    <text x="90" y="224" fill="#f3efe6" opacity="0.72" font-size="20" font-family="ui-sans-serif, system-ui, -apple-system, 'Segoe UI', Roboto, Arial" letter-spacing="0.14em">DEDICATED GLUTEN-FREE BAKERY</text>
    <text x="90" y="270" fill="#f3efe6" opacity="0.68" font-size="18" font-family="ui-sans-serif, system-ui, -apple-system, 'Segoe UI', Roboto, Arial">Seoul • Gangnam</text>
  </g>

  <g transform="translate(90 330)" fill="none" stroke="#d6b36a" stroke-opacity="0.7">
    <path d="M40 40c22 0 40 18 40 40s-18 40-40 40S0 102 0 80s18-40 40-40Z" stroke-width="2"/>
    <path d="M18 84c20 16 44 16 64 0" stroke-width="2" stroke-linecap="round"/>
    <path d="M26 70c4-10 10-16 14-18" stroke-width="2" stroke-linecap="round"/>
    <path d="M54 52c4 2 10 8 14 18" stroke-width="2" stroke-linecap="round"/>
  </g>

  <g filter="url(#grain)" opacity="0.18">
    <rect width="1200" height="630" />
  </g>
</svg>
